<svg width="100" height="34" viewBox="0 0 100 34" fill="none" xmlns="http://www.w3.org/2000/svg">
<g clip-path="url(#clip0_4246_4886)">
<path d="M99.7251 20.8231C99.7692 20.8226 99.8127 20.8329 99.8518 20.8532C99.8909 20.8734 99.9244 20.903 99.9494 20.9393C99.9744 20.9755 99.9901 21.0174 99.9951 21.0612C100 21.1049 99.9942 21.1492 99.9781 21.1902L99.0983 23.6036C99.0068 23.8485 98.8479 24.0626 98.6399 24.221C98.4319 24.3795 98.1834 24.4759 97.9229 24.4991H95.3417C95.2984 24.4992 95.2558 24.4888 95.2175 24.4689C95.1791 24.449 95.1461 24.4201 95.1213 24.3848C95.0964 24.3494 95.0805 24.3085 95.0748 24.2657C95.0692 24.2228 95.0739 24.1793 95.0887 24.1386L95.9439 21.7902L95.9775 21.6962C96.0725 21.4551 96.2332 21.2455 96.4413 21.0912C96.6495 20.9368 96.8968 20.8439 97.155 20.8231H99.7251Z" fill="#009FFF"/>
<path d="M85.2901 6.09888C83.4342 6.09843 81.6199 6.64839 80.0766 7.67919C78.5333 8.70999 77.3303 10.1753 76.6199 11.8898C75.9095 13.6044 75.7235 15.4911 76.0855 17.3113C76.4474 19.1316 77.3411 20.8036 78.6534 22.1159C79.9657 23.4282 81.6377 24.3219 83.4579 24.6838C85.2782 25.0458 87.1649 24.8598 88.8794 24.1494C90.594 23.4389 92.0593 22.236 93.0901 20.6927C94.1209 19.1494 94.6708 17.3351 94.6704 15.4792C94.6704 12.9914 93.6821 10.6055 91.923 8.84631C90.1638 7.08716 87.7779 6.09888 85.2901 6.09888ZM85.1871 20.6037C84.1372 20.6037 83.1108 20.2923 82.2379 19.7089C81.3649 19.1256 80.6846 18.2965 80.2829 17.3264C79.8812 16.3564 79.7762 15.289 79.9812 14.2592C80.1862 13.2295 80.692 12.2837 81.4345 11.5415C82.1771 10.7992 83.1231 10.2938 84.1529 10.0893C85.1827 9.88473 86.2501 9.99016 87.22 10.3923C88.1898 10.7944 89.0187 11.4751 89.6017 12.3483C90.1847 13.2214 90.4956 14.2479 90.4952 15.2979C90.4946 16.7049 89.9354 18.0541 88.9405 19.049C87.9456 20.0439 86.5963 20.6031 85.1893 20.6037H85.1871Z" fill="#3A3A3A"/>
<path d="M26.3236 0.593826C26.3669 0.593974 26.4095 0.604588 26.4479 0.624763C26.4862 0.644939 26.5191 0.674078 26.5437 0.709698C26.5683 0.745318 26.584 0.786363 26.5893 0.829336C26.5946 0.87231 26.5895 0.915937 26.5744 0.956502L25.6968 3.36986C25.6051 3.61466 25.4461 3.82858 25.2382 3.98701C25.0302 4.14543 24.7818 4.24192 24.5214 4.26536H21.9335C21.8902 4.26544 21.8476 4.25509 21.8093 4.23519C21.7709 4.21529 21.7379 4.18642 21.7131 4.15105C21.6882 4.11567 21.6723 4.07482 21.6666 4.03197C21.661 3.98913 21.6657 3.94554 21.6805 3.90492L22.5357 1.55648L22.5693 1.46246C22.6654 1.22078 22.8277 1.01109 23.0376 0.857454C23.2474 0.703815 23.4964 0.612445 23.7558 0.593826L26.3236 0.593826Z" fill="#3A3A3A"/>
<path d="M52.828 0.862462V2.88852C52.828 3.25507 52.6825 3.60664 52.4236 3.86604C52.1646 4.12544 51.8132 4.27147 51.4467 4.27206H49.2841C49.2128 4.27206 49.1445 4.24376 49.0941 4.19338C49.0437 4.14299 49.0154 4.07466 49.0154 4.00341V1.98855C49.0139 1.80573 49.0487 1.62443 49.1177 1.45513C49.1867 1.28583 49.2886 1.13189 49.4175 1.0022C49.5463 0.872505 49.6996 0.769639 49.8685 0.699543C50.0373 0.629447 50.2184 0.593511 50.4012 0.593813H52.5616C52.6324 0.594403 52.7002 0.622968 52.7501 0.673285C52.8 0.723603 52.828 0.791598 52.828 0.862462Z" fill="#3A3A3A"/>
<path d="M61.5211 10.46H64.8232C64.8945 10.46 64.9628 10.4316 65.0132 10.3813C65.0636 10.3309 65.0919 10.2626 65.0919 10.1913V6.91379C65.0919 6.84254 65.0636 6.77421 65.0132 6.72382C64.9628 6.67344 64.8945 6.64514 64.8232 6.64514H61.5211V0.862475C61.5211 0.791225 61.4928 0.722893 61.4424 0.672512C61.392 0.62213 61.3237 0.593826 61.2524 0.593826H57.9772C57.9059 0.593826 57.8376 0.62213 57.7872 0.672512C57.7368 0.722893 57.7085 0.791225 57.7085 0.862475V6.63842H55.828C55.7567 6.63842 55.6884 6.66673 55.638 6.71711C55.5876 6.76749 55.5593 6.83582 55.5593 6.90707V10.1913C55.5593 10.2626 55.5876 10.3309 55.638 10.3813C55.6884 10.4316 55.7567 10.46 55.828 10.46H57.7085V18.2955C57.7058 18.8587 57.744 19.4214 57.8227 19.9791C57.8218 19.9873 57.8218 19.9955 57.8227 20.0037C57.8435 20.1761 57.8733 20.3472 57.9122 20.5164C57.9122 20.5298 57.9122 20.5455 57.9122 20.5611C58.1382 21.5147 58.6128 22.3913 59.2876 23.1019C59.9624 23.8125 60.8133 24.3316 61.7539 24.6065C62.7783 24.9038 63.8668 24.8984 64.8881 24.5909C64.9433 24.5743 64.9914 24.5402 65.0254 24.4937C65.0593 24.4472 65.0772 24.391 65.0762 24.3334V21.4432C65.0762 21.372 65.0479 21.3036 64.9975 21.2532C64.9471 21.2029 64.8788 21.1746 64.8076 21.1746H64.2456C63.5205 21.1622 62.8293 20.8655 62.3209 20.3483C61.8125 19.8311 61.5277 19.1349 61.5278 18.4097C61.5233 16.4463 61.5188 12.4099 61.5211 10.46Z" fill="#3A3A3A"/>
<path d="M21.8104 24.8281H25.1148C25.1491 24.8272 25.1829 24.8196 25.2142 24.8056C25.2455 24.7916 25.2738 24.7715 25.2973 24.7465C25.3208 24.7215 25.3391 24.6921 25.3512 24.66C25.3633 24.6279 25.369 24.5937 25.3678 24.5594V6.8622C25.369 6.82791 25.3633 6.79372 25.3512 6.76161C25.3391 6.7295 25.3208 6.70011 25.2973 6.67513C25.2738 6.65015 25.2455 6.63008 25.2142 6.61608C25.1829 6.60207 25.1491 6.59442 25.1148 6.59355H21.8104C21.7761 6.59442 21.7423 6.60207 21.711 6.61608C21.6797 6.63008 21.6514 6.65015 21.6279 6.67513C21.6044 6.70011 21.586 6.7295 21.5739 6.76161C21.5618 6.79372 21.5562 6.82791 21.5574 6.8622V24.5482C21.5547 24.5834 21.5591 24.6188 21.5705 24.6523C21.5819 24.6857 21.6 24.7164 21.6237 24.7426C21.6474 24.7688 21.6761 24.7899 21.7082 24.8046C21.7403 24.8193 21.7751 24.8273 21.8104 24.8281Z" fill="#3A3A3A"/>
<path d="M49.2463 24.8617H52.5507C52.585 24.8608 52.6187 24.8531 52.6501 24.8391C52.6814 24.8251 52.7096 24.8051 52.7332 24.7801C52.7567 24.7551 52.775 24.7257 52.7871 24.6936C52.7992 24.6615 52.8048 24.6273 52.8036 24.593V6.90697C52.8048 6.87268 52.7992 6.83849 52.7871 6.80638C52.775 6.77427 52.7567 6.74488 52.7332 6.7199C52.7096 6.69492 52.6814 6.67485 52.6501 6.66085C52.6187 6.64684 52.585 6.63919 52.5507 6.63832H49.2463C49.2119 6.63919 49.178 6.64683 49.1465 6.66081C49.1151 6.67478 49.0867 6.69482 49.063 6.71976C49.0393 6.74471 49.0207 6.77409 49.0084 6.80621C48.9961 6.83833 48.9902 6.87257 48.9911 6.90697V24.593C48.9902 24.6274 48.9961 24.6616 49.0084 24.6938C49.0207 24.7259 49.0393 24.7553 49.063 24.7802C49.0867 24.8052 49.1151 24.8252 49.1465 24.8392C49.178 24.8531 49.2119 24.8608 49.2463 24.8617Z" fill="#3A3A3A"/>
<path d="M18.5261 0.593759H15.3516C15.2803 0.594334 15.2121 0.622753 15.1614 0.672948C15.1108 0.723142 15.0818 0.791135 15.0807 0.862408V8.02637C13.6615 6.93996 11.9593 6.28551 10.1778 6.14136H10.1599C9.90919 6.12345 9.65397 6.11001 9.39428 6.11001C9.23085 6.11001 9.06966 6.11001 8.90623 6.12121C7.3242 6.20198 5.78834 6.68191 4.44178 7.51626C3.09522 8.35061 1.98177 9.51224 1.20517 10.8929C0.428565 12.2736 0.0140878 13.8284 0.000352851 15.4124C-0.0133821 16.9965 0.374072 18.5582 1.12662 19.9521C1.15243 20.0028 1.18083 20.0521 1.21169 20.0999C1.33706 20.2947 1.45123 20.4827 1.57884 20.6685C2.28866 21.7377 3.21027 22.6499 4.28668 23.3487C5.3631 24.0475 6.57142 24.518 7.83694 24.7312C9.10245 24.9444 10.3982 24.8957 11.6442 24.5882C12.8901 24.2806 14.0597 23.7207 15.0807 22.9431V24.5259C15.0807 24.5977 15.1092 24.6666 15.16 24.7174C15.2108 24.7682 15.2797 24.7968 15.3516 24.7968H18.5261C18.5619 24.7974 18.5975 24.7908 18.6308 24.7774C18.6641 24.764 18.6943 24.7441 18.7198 24.7189C18.7452 24.6937 18.7654 24.6636 18.779 24.6304C18.7927 24.5973 18.7995 24.5617 18.7992 24.5259V0.862408C18.7989 0.826834 18.7916 0.791666 18.7777 0.758913C18.7639 0.726159 18.7437 0.696461 18.7183 0.671515C18.6929 0.646568 18.6629 0.626862 18.6299 0.61352C18.597 0.600179 18.5617 0.593464 18.5261 0.593759ZM9.27339 20.6036C8.22346 20.6036 7.19711 20.2922 6.32416 19.7089C5.45121 19.1255 4.77086 18.2964 4.36917 17.3263C3.96749 16.3563 3.8625 15.2889 4.06749 14.2592C4.27249 13.2295 4.77825 12.2837 5.52082 11.5414C6.26339 10.7992 7.2094 10.2938 8.23921 10.0892C9.26902 9.88467 10.3364 9.99011 11.3062 10.3922C12.2761 10.7943 13.105 11.475 13.688 12.3482C14.2709 13.2214 14.5819 14.2479 14.5814 15.2978C14.5808 16.7052 14.0213 18.0547 13.026 19.0497C12.0306 20.0447 10.6808 20.6036 9.27339 20.6036Z" fill="#3A3A3A"/>
<path d="M75.1304 6.80626V10.039C75.1304 10.1102 75.1021 10.1786 75.0517 10.229C75.0014 10.2793 74.933 10.3076 74.8618 10.3076C74.7834 10.3076 74.3155 10.3076 74.2551 10.3076C73.5328 10.32 72.8448 10.6178 72.3415 11.1358C71.8381 11.6539 71.5602 12.3502 71.5686 13.0725V24.5595C71.5686 24.6307 71.5403 24.699 71.4899 24.7494C71.4395 24.7998 71.3712 24.8281 71.2999 24.8281H68.0157C67.9445 24.8281 67.8761 24.7998 67.8258 24.7494C67.7754 24.699 67.7471 24.6307 67.7471 24.5595V6.63835C67.7471 6.5671 67.7754 6.49877 67.8258 6.44839C67.8761 6.39801 67.9445 6.36971 68.0157 6.36971H71.291C71.3622 6.36971 71.4306 6.39801 71.481 6.44839C71.5313 6.49877 71.5596 6.5671 71.5596 6.63835V7.2361C72.3943 6.75762 73.34 6.50672 74.3021 6.50851C74.3021 6.50851 74.6357 6.50851 74.8842 6.53537C74.9519 6.54103 75.0149 6.57211 75.0606 6.62238C75.1063 6.67264 75.1312 6.73834 75.1304 6.80626Z" fill="#3A3A3A"/>
<path d="M30.8058 30.0467C31.0722 30.2706 31.2648 30.4228 31.3275 30.4698C31.4506 30.5616 31.5648 30.64 31.6006 30.6646C31.6871 30.7258 31.7745 30.784 31.8625 30.8392C33.2173 31.7345 34.7932 32.2381 36.4161 32.2944C36.5571 32.2944 36.696 32.3056 36.837 32.3056C41.6077 32.2765 46.2016 28.5736 46.224 23.082V6.63847C46.224 6.60358 46.2171 6.56905 46.2037 6.53685C46.1903 6.50465 46.1706 6.47543 46.1459 6.45087C46.1211 6.42631 46.0917 6.4069 46.0594 6.39376C46.0271 6.38061 45.9925 6.374 45.9576 6.37429H42.8234C42.7521 6.37429 42.6838 6.4026 42.6334 6.45298C42.583 6.50336 42.5547 6.57169 42.5547 6.64294V7.93693C41.5433 7.18947 40.3899 6.65623 39.1653 6.36982C38.9929 6.32728 38.8183 6.28922 38.6437 6.26236C38.5698 6.24669 38.4937 6.23325 38.4198 6.22206C38.2631 6.19743 38.1064 6.17728 37.9474 6.16385C37.7885 6.15042 37.6899 6.13923 37.5556 6.13251C37.5116 6.13016 37.4675 6.13016 37.4235 6.13251C37.1424 6.11684 36.8607 6.11684 36.5795 6.13251C36.4295 6.13251 36.284 6.14818 36.1318 6.16385C34.6507 6.29137 33.2226 6.7761 31.97 7.5765C31.8759 7.6347 31.7819 7.69515 31.6856 7.76231C30.4444 8.57508 29.4212 9.67954 28.7055 10.9791C27.9897 12.2787 27.6032 13.7339 27.5798 15.2173C27.5336 16.5666 27.7875 17.9093 28.3231 19.1485C28.4437 19.4264 28.579 19.6977 28.7283 19.9612C28.7547 20.0134 28.7839 20.0642 28.8156 20.1134C29.4438 21.2272 30.2932 22.2007 31.3116 22.9742C32.3299 23.7476 33.4956 24.3046 34.7371 24.611C35.9787 24.9173 37.2697 24.9665 38.5309 24.7556C39.7922 24.5446 40.9969 24.0779 42.0712 23.3842C41.9567 24.3554 41.576 25.276 40.9711 26.0443C40.3662 26.8126 39.5607 27.3987 38.6435 27.7379C37.7264 28.077 36.7333 28.156 35.774 27.9661C34.8148 27.7762 33.9267 27.3248 33.208 26.6618C33.1416 26.5976 33.0529 26.5617 32.9606 26.5617C32.8683 26.5617 32.7796 26.5976 32.7132 26.6618C31.9058 27.4692 31.0969 28.2781 30.2864 29.0885C30.2535 29.1212 30.2273 29.1601 30.2095 29.2029C30.1916 29.2458 30.1824 29.2917 30.1824 29.3382C30.1824 29.3846 30.1916 29.4305 30.2095 29.4734C30.2273 29.5162 30.2535 29.5551 30.2864 29.5878C30.4902 29.7646 30.6648 29.9214 30.8058 30.0467ZM40.5824 19.0187C39.8433 19.7691 38.8978 20.2828 37.866 20.4945C36.8342 20.7061 35.7628 20.6062 34.788 20.2073C33.8132 19.8085 32.979 19.1287 32.3915 18.2545C31.804 17.3803 31.4897 16.3512 31.4886 15.2979V15.2845C31.4808 14.1279 31.8545 13.001 32.5518 12.0782C33.2491 11.1555 34.2312 10.4884 35.346 10.1802C36.1209 9.96209 36.9353 9.92276 37.7276 10.0651C38.52 10.2075 39.2697 10.5279 39.9202 11.0021C40.5708 11.4763 41.1052 12.092 41.4832 12.8028C41.8612 13.5136 42.073 14.3009 42.1025 15.1054C42.1025 15.1636 42.1025 15.2285 42.1025 15.2912C42.1083 16.6857 41.5618 18.0259 40.5824 19.0187Z" fill="#3A3A3A"/>
</g>
<defs>
<clipPath id="clip0_4246_4886">
<rect width="100" height="32.8125" fill="white" transform="translate(0 0.59375)"/>
</clipPath>
</defs>
</svg>
